<svg width="17" height="16" viewBox="0 0 17 16" fill="none" xmlns="http://www.w3.org/2000/svg">
<path fill-rule="evenodd" clip-rule="evenodd" d="M10.8683 0.195262C10.608 0.455612 10.608 0.877722 10.8683 1.13807L13.6085 3.87821H5.60257C2.50836 3.87821 9.53674e-06 6.38656 9.53674e-06 9.48077C9.53674e-06 12.575 2.50836 15.0833 5.60258 15.0833H8.29488C8.66307 15.0833 8.96155 14.7849 8.96155 14.4167C8.96155 14.0485 8.66307 13.75 8.29488 13.75H5.60258C3.24474 13.75 1.33334 11.8386 1.33334 9.48077C1.33334 7.12294 3.24474 5.21154 5.60257 5.21154H13.6085L10.8683 7.95167C10.608 8.21202 10.608 8.63413 10.8683 8.89448C11.1287 9.15483 11.5508 9.15483 11.8112 8.89448L16.1608 4.54487L11.8112 0.195262C11.5508 -0.0650874 11.1287 -0.0650874 10.8683 0.195262Z" fill="#CAD4DD"/>
</svg>
