<svg width="17" height="16" viewBox="0 0 17 16" fill="none" xmlns="http://www.w3.org/2000/svg">
<path fill-rule="evenodd" clip-rule="evenodd" d="M5.29242 0.195262C5.55277 0.455612 5.55277 0.877722 5.29242 1.13807L2.55228 3.87821H10.5582C13.6524 3.87821 16.1608 6.38656 16.1608 9.48077C16.1608 12.575 13.6524 15.0833 10.5582 15.0833H7.86589C7.4977 15.0833 7.19922 14.7849 7.19922 14.4167C7.19922 14.0485 7.4977 13.75 7.86589 13.75H10.5582C12.916 13.75 14.8274 11.8386 14.8274 9.48077C14.8274 7.12294 12.916 5.21154 10.5582 5.21154H2.55228L5.29242 7.95167C5.55277 8.21202 5.55277 8.63413 5.29242 8.89448C5.03207 9.15483 4.60996 9.15483 4.34961 8.89448L0 4.54487L4.34961 0.195262C4.60996 -0.0650874 5.03207 -0.0650874 5.29242 0.195262Z" fill="#CAD4DD"/>
</svg>
