<svg width="12" height="13" viewBox="0 0 12 13" fill="none" xmlns="http://www.w3.org/2000/svg">
<path d="M6.31947 4.08205L6.52296 3.0646L6.72645 4.08205C7.10227 5.96122 8.57116 7.43011 10.4503 7.80594L11.4678 8.00943L10.4503 8.21292C8.57116 8.58875 7.10227 10.0576 6.72645 11.9368L6.52296 12.9543L6.31947 11.9368C5.94364 10.0576 4.47475 8.58875 2.59557 8.21292L1.57812 8.00943L2.59557 7.80594C4.47475 7.43011 5.94364 5.96122 6.31947 4.08205Z" fill="#5BF0A5"/>
<path d="M2.37067 0.508724L2.47242 0L2.57416 0.508724C2.76208 1.4483 3.49651 2.18275 4.43611 2.37067L4.94483 2.47242L4.43611 2.57416C3.49651 2.76206 2.76208 3.49651 2.57416 4.43611L2.47242 4.94483L2.37067 4.43611C2.18275 3.49651 1.4483 2.76206 0.508724 2.57416L0 2.47242L0.508724 2.37067C1.4483 2.18275 2.18275 1.4483 2.37067 0.508724Z" fill="#5BF0A5"/>
<path d="M10.2836 2.12006L10.3515 1.78091L10.4193 2.12006C10.5446 2.74645 11.0342 3.23607 11.6606 3.36135L11.9997 3.4292L11.6606 3.49702C11.0342 3.6223 10.5446 4.11192 10.4193 4.73831L10.3515 5.07747L10.2836 4.73831C10.1584 4.11192 9.66873 3.6223 9.04234 3.49702L8.70319 3.4292L9.04234 3.36135C9.66873 3.23607 10.1584 2.74645 10.2836 2.12006Z" fill="#5BF0A5"/>
</svg>
